<svg width="1740" height="1728" viewBox="0 0 1740 1728" fill="none" xmlns="http://www.w3.org/2000/svg">
<g clip-path="url(#clip0_15_4)">
<path d="M1551.68 1585H164.319L858 73.9678L1551.68 1585Z" fill="white" stroke="#FFD700" stroke-width="20"/>
<ellipse cx="855.183" cy="1211.53" rx="355.965" ry="348.381" fill="white"/>
<path d="M724.335 1440.35C725.145 1440.77 725.958 1441.18 726.773 1441.6L702.599 1496.59C700.604 1495.6 698.619 1494.6 696.647 1493.57L724.335 1440.35ZM998.928 1466.96L1010.89 1489.97L1012.77 1493.57C1011.37 1494.3 1009.97 1495.02 1008.55 1495.73L983.916 1440.95C984.305 1440.75 984.696 1440.55 985.084 1440.35L998.928 1466.96ZM696.266 1423.57C698.516 1425.1 700.791 1426.6 703.091 1428.07L670.801 1478.64C668.002 1476.85 665.232 1475.03 662.492 1473.16L696.266 1423.57ZM1046.93 1473.16C1044.19 1475.03 1041.42 1476.85 1038.62 1478.64L1006.33 1428.07C1008.63 1426.6 1010.9 1425.1 1013.15 1423.57L1046.93 1473.16ZM670.416 1403.62C672.465 1405.41 674.543 1407.16 676.648 1408.89L638.595 1455.28C636.028 1453.17 633.495 1451.03 630.996 1448.85L670.416 1403.62ZM1078.42 1448.85C1075.92 1451.03 1073.39 1453.17 1070.82 1455.28L1032.77 1408.89C1034.88 1407.16 1036.95 1405.41 1039 1403.62L1078.42 1448.85ZM647.177 1380.78C648.993 1382.79 650.842 1384.78 652.721 1386.74L609.396 1428.25C607.1 1425.86 604.841 1423.42 602.62 1420.96L647.177 1380.78ZM1084.52 1400.87L1097.37 1412.46L1106.8 1420.96C1104.58 1423.42 1102.32 1425.86 1100.02 1428.25L1056.7 1386.74C1058.58 1384.78 1060.43 1382.79 1062.24 1380.78L1084.52 1400.87ZM626.923 1355.38C628.477 1357.59 630.065 1359.78 631.688 1361.95L607.673 1379.93L583.659 1397.91C581.671 1395.26 579.724 1392.57 577.817 1389.85L584.352 1385.27L626.923 1355.38ZM1107.05 1372.62L1131.6 1389.85C1129.69 1392.57 1127.75 1395.26 1125.76 1397.91L1101.75 1379.93V1379.93L1077.73 1361.95C1079.35 1359.78 1080.94 1357.59 1082.5 1355.38L1107.05 1372.62ZM609.989 1327.79C611.254 1330.17 612.556 1332.53 613.895 1334.87L561.813 1364.66C560.167 1361.78 558.565 1358.88 557.008 1355.95L583.498 1341.87L609.989 1327.79ZM1152.41 1355.95C1150.85 1358.88 1149.25 1361.78 1147.6 1364.66L1095.52 1334.87C1096.86 1332.53 1098.16 1330.17 1099.43 1327.79L1152.41 1355.95ZM596.658 1298.41C597.614 1300.92 598.609 1303.42 599.642 1305.9L549.885 1326.62L544.252 1328.96C542.977 1325.9 541.749 1322.82 540.569 1319.71L596.658 1298.41ZM1140.8 1309.06L1157.37 1315.35L1168.85 1319.71C1167.67 1322.82 1166.44 1325.9 1165.17 1328.96L1159.53 1326.62L1109.78 1305.9C1110.81 1303.42 1111.81 1300.92 1112.76 1298.41L1140.8 1309.06ZM587.155 1267.66C587.784 1270.27 588.454 1272.87 589.163 1275.45L560.233 1283.4L533.631 1290.71L531.307 1291.34C530.43 1288.15 529.603 1284.94 528.825 1281.71L587.155 1267.66ZM1151.43 1274.69L1152.97 1275.06L1180.59 1281.71C1179.81 1284.94 1178.99 1288.15 1178.11 1291.34L1149.18 1283.4V1283.4L1120.26 1275.45C1120.96 1272.87 1121.63 1270.27 1122.26 1267.66L1151.43 1274.69ZM581.616 1235.95C581.911 1238.63 582.248 1241.3 582.625 1243.95L552.924 1248.17L523.224 1252.4C522.757 1249.12 522.341 1245.82 521.977 1242.51L551.797 1239.23L581.616 1235.95ZM1157.62 1239.23H1157.62L1187.44 1242.51C1187.08 1245.82 1186.66 1249.12 1186.19 1252.4L1156.5 1248.17L1126.79 1243.95C1127.17 1241.3 1127.51 1238.63 1127.8 1235.95L1157.62 1239.23ZM580.105 1203.68C580.084 1205.03 580.074 1206.39 580.074 1207.74C580.074 1209.1 580.084 1210.45 580.105 1211.8L550.108 1212.27L550.109 1212.27L520.114 1212.74C520.099 1211.77 520.087 1210.81 520.081 1209.84L520.074 1207.74C520.074 1206.07 520.088 1204.41 520.114 1202.75L580.105 1203.68ZM1189.3 1202.75C1189.33 1204.41 1189.34 1206.07 1189.34 1207.74L1189.34 1209.84C1189.33 1210.81 1189.32 1211.77 1189.3 1212.74L1159.31 1212.27V1212.27L1129.31 1211.8C1129.33 1210.45 1129.34 1209.1 1129.34 1207.74C1129.34 1206.39 1129.33 1205.03 1129.31 1203.68L1189.3 1202.75ZM582.625 1171.53C582.248 1174.19 581.911 1176.85 581.616 1179.53L551.797 1176.25V1176.25L521.977 1172.97C522.341 1169.66 522.757 1166.36 523.224 1163.09L582.625 1171.53ZM1186.19 1163.09C1186.66 1166.36 1187.08 1169.66 1187.44 1172.97L1157.62 1176.25L1157.62 1176.25L1127.8 1179.53C1127.51 1176.85 1127.17 1174.19 1126.79 1171.53L1186.19 1163.09ZM560.234 1132.08H560.233L589.163 1140.03C588.454 1142.61 587.784 1145.21 587.155 1147.82L528.825 1133.77C529.603 1130.54 530.43 1127.33 531.307 1124.14L560.234 1132.08ZM1178.11 1124.14C1178.99 1127.33 1179.81 1130.54 1180.59 1133.77L1122.26 1147.82C1121.63 1145.21 1120.96 1142.61 1120.26 1140.03L1149.18 1132.08L1178.11 1124.14ZM599.642 1109.58C598.609 1112.06 597.614 1114.56 596.658 1117.07L568.613 1106.42L540.569 1095.77C541.749 1092.66 542.977 1089.58 544.252 1086.52L599.642 1109.58ZM1165.17 1086.52C1166.44 1089.58 1167.67 1092.66 1168.85 1095.77L1140.81 1106.42L1140.8 1106.42L1112.76 1117.07C1111.81 1114.56 1110.81 1112.06 1109.78 1109.58L1165.17 1086.52ZM613.895 1080.61C612.556 1082.95 611.254 1085.31 609.989 1087.69L557.008 1059.53C558.565 1056.6 560.167 1053.7 561.813 1050.82L613.895 1080.61ZM1147.6 1050.82C1149.25 1053.7 1150.85 1056.6 1152.41 1059.53L1099.43 1087.69C1098.16 1085.31 1096.86 1082.95 1095.52 1080.61L1147.6 1050.82ZM607.674 1035.55H607.673L631.688 1053.53C630.065 1055.7 628.477 1057.89 626.923 1060.1L595.383 1037.96L577.817 1025.63C579.724 1022.91 581.671 1020.23 583.659 1017.57L607.674 1035.55ZM1125.76 1017.57C1127.75 1020.23 1129.69 1022.91 1131.6 1025.63L1114.04 1037.96L1082.5 1060.1C1080.94 1057.89 1079.35 1055.7 1077.73 1053.53L1101.75 1035.55L1125.76 1017.57ZM652.721 1028.74C650.842 1030.7 648.993 1032.69 647.177 1034.7L602.62 994.52C604.841 992.057 607.1 989.627 609.396 987.23L652.721 1028.74ZM1101.18 988.451C1103.08 990.451 1104.95 992.474 1106.8 994.52L1062.24 1034.7C1060.43 1032.69 1058.58 1030.7 1056.7 1028.74L1065.51 1020.29L1101.18 988.451Z" fill="#3EBEBD"/>
<path d="M654.687 1213.43C654.687 1318.07 760.234 1420.22 821.709 1465.01C823.548 1466.35 825.701 1464.06 824.33 1462.25C745.492 1357.75 587.098 1107.94 852.56 1213.14C853.003 1213.32 853.519 1213.35 853.97 1213.2C931.034 1186.63 1063.47 1102.56 967.331 1308.24C966.476 1310.07 968.451 1312.1 970.139 1310.99C1014.05 1282.16 1056.15 1249.89 1056.15 1185.94C1056.15 1076.19 927.01 1121.06 854.297 1162.14C853.664 1162.5 852.917 1162.49 852.295 1162.11C781.472 1119.17 654.687 1075.67 654.687 1213.43Z" fill="#01405F"/>
<path d="M910.166 1253.72C910.166 1243.13 928.998 1239.5 941.911 1238.26C943.131 1238.14 943.429 1240.15 942.264 1240.53C934.554 1243.07 925.807 1247.36 925.807 1253.72C925.807 1260.08 934.554 1264.37 942.264 1266.91C943.428 1267.3 943.131 1269.31 941.911 1269.19C928.998 1267.94 910.166 1264.31 910.166 1253.72Z" fill="#01405F"/>
<rect x="760.386" y="1235.71" width="39.815" height="39.815" rx="19.9075" fill="#01405F"/>
<path d="M1019.72 1319.1C1024.55 1326.79 1018.32 1335.78 1013.02 1341.41C1012.21 1342.26 1010.91 1341.14 1011.47 1340.1C1014.24 1334.97 1016.77 1328 1013.7 1323.11C1010.31 1317.71 1001.05 1316.03 994.597 1315.53C993.45 1315.45 993.238 1313.86 994.363 1313.62C1002.09 1312.01 1014.58 1310.93 1019.72 1319.1Z" fill="#E62D22"/>
<path d="M767.658 1316.05C770.331 1312.59 775.122 1313.3 778.91 1314.65C779.979 1315.03 779.468 1316.72 778.335 1316.8C776.002 1316.96 773.559 1317.65 772.1 1319.54C770.394 1321.75 770.3 1325.14 770.639 1328C770.77 1329.1 769.32 1329.76 768.782 1328.78C766.709 1325.04 764.794 1319.76 767.658 1316.05Z" fill="#E62D22"/>
<path d="M892.628 1349.47C851.786 1349.91 781.715 1327.19 781.715 1327.19C781.715 1327.19 812.524 1358 892.628 1358C965.148 1358 993.114 1332.4 993.114 1332.4C993.114 1332.4 930.166 1349.06 892.628 1349.47Z" fill="#E62D22"/>
<path d="M781.715 1327.19L782.795 1323.86C781.256 1323.36 779.575 1323.98 778.73 1325.36C777.885 1326.74 778.096 1328.52 779.24 1329.66L781.715 1327.19ZM892.628 1349.47L892.666 1352.97L892.666 1352.97L892.628 1349.47ZM993.114 1332.4L995.477 1334.99C996.665 1333.9 996.957 1332.14 996.185 1330.73C995.413 1329.31 993.776 1328.61 992.218 1329.02L993.114 1332.4ZM781.715 1327.19C780.636 1330.52 780.636 1330.52 780.637 1330.52C780.638 1330.52 780.639 1330.52 780.64 1330.52C780.642 1330.52 780.646 1330.52 780.651 1330.52C780.66 1330.53 780.673 1330.53 780.691 1330.54C780.727 1330.55 780.779 1330.56 780.847 1330.59C780.984 1330.63 781.187 1330.7 781.452 1330.78C781.982 1330.95 782.761 1331.19 783.767 1331.51C785.777 1332.13 788.691 1333.02 792.313 1334.09C799.555 1336.22 809.64 1339.06 821.011 1341.89C843.65 1347.52 871.759 1353.19 892.666 1352.97L892.628 1349.47L892.59 1345.97C872.656 1346.18 845.307 1340.72 822.7 1335.1C811.449 1332.3 801.463 1329.49 794.291 1327.38C790.706 1326.32 787.826 1325.44 785.845 1324.82C784.854 1324.51 784.089 1324.27 783.572 1324.11C783.314 1324.03 783.118 1323.96 782.987 1323.92C782.922 1323.9 782.873 1323.89 782.841 1323.88C782.825 1323.87 782.813 1323.87 782.805 1323.86C782.801 1323.86 782.798 1323.86 782.797 1323.86C782.796 1323.86 782.795 1323.86 782.795 1323.86C782.795 1323.86 782.795 1323.86 781.715 1327.19ZM892.628 1349.47L892.666 1352.97C911.799 1352.76 937.205 1348.43 957.655 1344.21C967.917 1342.09 976.998 1339.99 983.514 1338.41C986.772 1337.63 989.391 1336.97 991.198 1336.51C992.101 1336.28 992.801 1336.1 993.277 1335.98C993.515 1335.92 993.697 1335.87 993.819 1335.84C993.881 1335.82 993.928 1335.81 993.959 1335.8C993.975 1335.8 993.987 1335.79 993.995 1335.79C994 1335.79 994.003 1335.79 994.005 1335.79C994.006 1335.79 994.007 1335.79 994.008 1335.79C994.008 1335.79 994.009 1335.79 993.114 1332.4C992.218 1329.02 992.218 1329.02 992.218 1329.02C992.218 1329.02 992.217 1329.02 992.216 1329.02C992.215 1329.02 992.212 1329.02 992.209 1329.02C992.202 1329.02 992.191 1329.03 992.176 1329.03C992.147 1329.04 992.103 1329.05 992.044 1329.07C991.927 1329.1 991.75 1329.14 991.518 1329.2C991.053 1329.32 990.364 1329.5 989.473 1329.73C987.691 1330.18 985.098 1330.83 981.869 1331.61C975.41 1333.17 966.408 1335.26 956.24 1337.35C935.831 1341.57 910.995 1345.77 892.59 1345.97L892.628 1349.47ZM993.114 1332.4C990.751 1329.82 990.752 1329.82 990.753 1329.82C990.754 1329.82 990.755 1329.82 990.756 1329.82C990.757 1329.82 990.758 1329.81 990.758 1329.81C990.759 1329.81 990.759 1329.81 990.756 1329.82C990.751 1329.82 990.74 1329.83 990.721 1329.85C990.684 1329.88 990.619 1329.94 990.527 1330.01C990.342 1330.17 990.044 1330.41 989.631 1330.73C988.805 1331.37 987.514 1332.31 985.726 1333.45C982.152 1335.74 976.587 1338.83 968.77 1341.95C953.146 1348.18 928.467 1354.5 892.628 1354.5V1358V1361.5C929.31 1361.5 954.873 1355.02 971.362 1348.45C979.602 1345.17 985.56 1341.87 989.496 1339.35C991.463 1338.09 992.923 1337.03 993.909 1336.27C994.403 1335.89 994.777 1335.59 995.037 1335.37C995.167 1335.26 995.268 1335.17 995.341 1335.11C995.378 1335.07 995.407 1335.05 995.43 1335.03C995.441 1335.02 995.451 1335.01 995.458 1335C995.462 1335 995.466 1335 995.469 1334.99C995.47 1334.99 995.472 1334.99 995.473 1334.99C995.475 1334.99 995.477 1334.99 993.114 1332.4ZM892.628 1358V1354.5C853.038 1354.5 825.787 1346.89 808.528 1339.38C799.893 1335.63 793.741 1331.89 789.783 1329.13C787.804 1327.75 786.372 1326.61 785.452 1325.84C784.992 1325.45 784.66 1325.15 784.451 1324.96C784.346 1324.86 784.273 1324.79 784.229 1324.75C784.208 1324.73 784.194 1324.72 784.187 1324.71C784.184 1324.71 784.183 1324.71 784.183 1324.71C784.183 1324.71 784.184 1324.71 784.185 1324.71C784.186 1324.71 784.187 1324.71 784.187 1324.71C784.189 1324.71 784.19 1324.71 781.715 1327.19C779.24 1329.66 779.242 1329.67 779.244 1329.67C779.244 1329.67 779.246 1329.67 779.248 1329.67C779.251 1329.68 779.254 1329.68 779.258 1329.68C779.267 1329.69 779.276 1329.7 779.288 1329.71C779.312 1329.73 779.343 1329.77 779.382 1329.8C779.461 1329.88 779.57 1329.98 779.711 1330.11C779.992 1330.37 780.4 1330.73 780.939 1331.19C782.017 1332.1 783.617 1333.37 785.778 1334.87C790.1 1337.89 796.657 1341.86 805.737 1345.8C823.909 1353.7 852.114 1361.5 892.628 1361.5V1358Z" fill="#E62D22"/>
<path d="M714.309 530.144C733.885 537.399 798.39 598.455 823.664 626.746C826.65 630.087 832.845 628.472 833.991 624.141C843.382 588.657 871.536 533.719 875.06 487.699C875.081 487.418 875.077 487.131 875.05 486.85C868.575 419.363 865.704 397.494 855.351 339.655C854.972 337.534 856.015 335.286 858.168 335.341C883.052 335.983 965.139 433.051 983.672 458.245C983.985 458.67 984.199 459.118 984.36 459.62C1023.87 582.28 956.097 610.495 955.814 622.381C955.791 623.338 956.592 624.068 957.47 624.45C981.33 634.837 1019.14 572.458 1025.76 521.812C1026.38 517.081 1032.61 515.151 1035.21 519.156C1066.19 567.006 1094.93 656.764 1052.87 758.416C1052.27 759.886 1052.38 761.59 1053.18 762.964C1089.31 824.977 1092.65 880.982 1092.65 905.811C1082.78 994.185 1057.29 1033.73 998.385 1092.97C997.449 1093.92 996.16 1094.46 994.832 1094.46H789.483C789.046 1094.46 788.67 1094.42 788.252 1094.3C760.402 1085.97 633.488 989.131 618.664 908.655C610.705 770.548 666.558 822.951 680.721 655.275C680.99 652.088 684.15 649.783 687.076 651.074C715.512 663.625 725.345 699.038 737.354 716.061C739.099 718.534 742.643 718.376 744.264 715.821C774.304 668.453 700.498 615.555 710.118 533.252C710.378 531.027 712.208 529.365 714.309 530.144Z" fill="white" stroke="white" stroke-width="32"/>
<path d="M1062.79 666.447C1062.79 806.987 859.868 853.009 842.032 974.348C841.71 976.537 838.338 976.943 837.65 974.84L816.073 908.886C815.924 908.431 815.943 907.938 816.127 907.496L887.281 736.443C887.369 736.232 887.421 736.003 887.432 735.774C892.017 645.79 885.088 589.253 901.555 500.974C901.606 500.699 901.6 500.408 901.535 500.136C891.692 458.862 882.68 425.868 866.581 351.32C866.159 349.365 868.592 348.113 869.994 349.539C963.562 444.714 988.376 483.106 982.716 522.621C982.696 522.759 982.691 522.907 982.7 523.046C989.11 625.058 892.977 609.522 922.833 685.594C923.332 686.865 925.005 687.293 926.032 686.393C996.888 624.292 1018.17 602.883 1031.54 530.671C1031.92 528.627 1034.81 528.414 1035.46 530.386C1052.91 582.587 1061.65 613.904 1062.79 666.447Z" fill="#ED2B28" stroke="#E62D22" stroke-width="7"/>
<path d="M1056.78 798.857C1079.02 856.776 1081.91 908.562 1069.46 954.828C1056.82 1001.78 1028.29 1043.36 987.507 1080.06H966.155C979.991 1060.02 989.292 1044.56 992.81 1025.43C996.341 1006.24 993.987 983.74 985.524 949.601L984.686 946.261L984.611 945.992C983.765 943.253 980.875 941.509 977.965 942.266C966.975 945.122 957.397 948.003 948.505 950.019C939.674 952.022 932.079 953.027 925.406 952.243C918.866 951.474 913.13 948.977 907.938 943.734C902.751 938.496 897.959 930.366 893.626 918.058C911.907 888.128 940.974 879.521 972.335 867.559C1003.06 855.837 1035.06 841.049 1056.78 798.857Z" fill="#ED2B28" stroke="#E62D22" stroke-width="7"/>
<path d="M890.016 457.349C898.072 471.086 902.331 486.272 903.824 508.541C905.544 534.19 903.58 568.973 899.582 621.415C899.552 621.807 899.567 622.206 899.615 622.571C902.549 644.709 908.045 656.379 915.818 661.77C923.647 667.201 932.74 665.431 939.743 664.235C947.464 662.917 952.736 662.281 956.804 665.829C958.891 667.65 960.993 670.873 962.698 676.644C964.401 682.413 965.634 690.481 966.156 701.685C966.387 706.631 965.552 712.782 963.817 719.46L949.579 739.639C910.454 784.376 881.109 810.716 863.36 855.401C845.659 899.964 839.473 962.587 844.881 1080.06H816.941C802.382 1054.13 793.438 1033.74 788.101 1013.15C782.712 992.368 780.949 971.212 780.949 943.73C780.949 866.289 810.863 825.373 833.471 788.255C844.775 769.697 854.44 751.79 857.071 730.776C859.702 709.756 855.253 686.077 839.381 655.877C846.984 605.387 862.239 577.738 874.35 550.831C886.015 524.914 894.578 499.964 890.016 457.349Z" fill="#F7891C" stroke="#F58D2E" stroke-width="7"/>
<path d="M894.619 915.771C894.728 915.602 895.238 915.109 896.655 915.482C898.061 915.853 898.944 916.782 899.148 917.482C903.452 932.255 913.15 943.685 927.065 949.221C940.93 954.737 958.517 954.225 978.392 946.123C979.484 945.678 980.522 946.34 980.72 947.172C987.664 976.292 991.338 998.384 989.49 1018.66C987.655 1038.79 980.339 1057.41 964.74 1079.44C964.471 1079.82 964.014 1080.06 963.544 1080.06H939.12C938.478 1080.06 937.934 1079.7 937.635 1078.99C937.327 1078.26 937.431 1077.48 937.927 1076.91C962.088 1049.23 966.891 1020.29 967.213 970.562C967.256 963.967 960.042 959.829 954.378 963.306C923.588 982.207 906.476 996.469 884.354 1021.36C883.634 1022.17 882.539 1021.94 882.132 1021.27C871.125 1003.22 867.79 987.116 870.268 970.593C872.772 953.894 881.258 936.422 894.619 915.771Z" fill="#F7891C" stroke="#F58D2E" stroke-width="7"/>
<path d="M740.291 753.501L746.572 770.774C747.057 772.109 748.784 772.486 749.828 771.524C835.475 692.605 806.39 634.616 722.165 543.193C720.934 541.856 718.689 542.797 718.722 544.614C720.837 660.332 793.384 640.229 740.38 751.924C740.15 752.409 740.108 752.997 740.291 753.501Z" fill="#2E7B85"/>
<path d="M722.637 543.274C811.082 619.989 858.027 662.078 858.027 716.216C858.027 797.684 715.879 880.326 816.316 1083.56H809.68C740.952 1031.42 673.646 971.221 673.646 898.701C675.982 801.051 757.075 801.5 687.202 665.789C686.296 664.029 688.057 662.151 689.671 663.295C711.406 678.693 729.767 714.042 746.147 769.326C746.582 770.792 748.488 771.218 749.547 770.115C831.454 684.806 789.659 629.744 719.818 546.059C718.242 544.171 720.78 541.663 722.637 543.274Z" fill="#04213E"/>
<path d="M814.894 1083.56C756.769 1035.1 676.784 977.142 674.797 901.607C672.4 810.499 762.946 799.357 689.723 663.771C688.745 661.96 685.946 662.668 685.919 664.726C684.01 807.846 629.091 776.886 629.091 896.856C629.091 954.45 730.817 1044.85 786.078 1083.21C786.412 1083.44 786.794 1083.56 787.201 1083.56H809.945H814.894Z" fill="#2E7B85"/>
</g>
<defs>
<clipPath id="clip0_15_4">
<rect width="1740" height="1728" fill="white"/>
</clipPath>
</defs>
</svg>
